<mxfile host="app.diagrams.net" modified="2024-03-04T18:57:14.790Z" agent="Mozilla/5.0 (Windows NT 10.0; Win64; x64) AppleWebKit/537.36 (KHTML, like Gecko) Chrome/122.0.0.0 Safari/537.36" version="23.1.5" etag="H3dTSLHA17FvZOjKlipF" type="github">
  <diagram name="Page-1" id="cZAVLZTq1GZBx3SkEJe5">
    <mxGraphModel>
      <root>
        <mxCell id="0" />
        <mxCell id="1" parent="0" />
      </root>
    </mxGraphModel>
  </diagram>
</mxfile>
